<svg xmlns="http://www.w3.org/2000/svg" viewBox="0 0 128 128" fill="none" role="img" aria-label="Swarmbase logo">
  <g stroke="#2dd4bf" stroke-width="3" stroke-linecap="round" opacity="0.55">
    <line x1="64" y1="64" x2="64" y2="22" />
    <line x1="64" y1="64" x2="27.6" y2="43" />
    <line x1="64" y1="64" x2="27.6" y2="85" />
    <line x1="64" y1="64" x2="64" y2="106" />
    <line x1="64" y1="64" x2="100.4" y2="85" />
    <line x1="64" y1="64" x2="100.4" y2="43" />
    <line x1="64" y1="22" x2="27.6" y2="43" />
    <line x1="27.6" y1="43" x2="27.6" y2="85" />
    <line x1="27.6" y1="85" x2="64" y2="106" />
    <line x1="64" y1="106" x2="100.4" y2="85" />
    <line x1="100.4" y1="85" x2="100.4" y2="43" />
    <line x1="100.4" y1="43" x2="64" y2="22" />
  </g>
  <circle cx="64" cy="22" r="9" fill="#2dd4bf" />
  <circle cx="27.6" cy="43" r="9" fill="#2dd4bf" />
  <circle cx="27.6" cy="85" r="9" fill="#2dd4bf" />
  <circle cx="64" cy="106" r="9" fill="#2dd4bf" />
  <circle cx="100.4" cy="85" r="9" fill="#2dd4bf" />
  <circle cx="100.4" cy="43" r="9" fill="#2dd4bf" />
  <circle cx="64" cy="64" r="13" fill="#6366f1" />
</svg>
